<?xml version="1.0" encoding="UTF-8" standalone="no"?> <svg xmlns="http://www.w3.org/2000/svg" viewBox="0 0 64 64"><defs><style>.cls-1{fill:#fff0fd;}.cls-2,.cls-6{fill:none;}.cls-2,.cls-4,.cls-5,.cls-6,.cls-7{stroke:#4c241d;stroke-linejoin:round;stroke-width:2px;}.cls-2,.cls-4{stroke-linecap:round;}.cls-3{fill:#4c241d;}.cls-4,.cls-5{fill:#ccc;}.cls-7{fill:#6b4f5b;}</style></defs><g id="pyramid"><circle class="cls-1" cx="31" cy="29" r="23"/><circle class="cls-2" cx="47" cy="9" r="2"/><circle class="cls-3" cx="20.0992" cy="5.5232" r="1.0691"/><line class="cls-2" x1="29.5509" y1="6.0547" x2="32.5509" y2="9.0547"/><line class="cls-2" x1="32.5509" y1="6.0547" x2="29.5509" y2="9.0547"/><polygon class="cls-4" points="62 58 2 58 8 42 56 42 62 58"/><polygon class="cls-4" points="51 42 13 42 17.143 28 46.857 28 51 42"/><rect class="cls-5" x="22" y="16" width="20" height="12"/><polygon class="cls-4" points="43 58 21 58 26 27 38 27 43 58"/><polygon class="cls-5" points="39 58 25 58 28.182 27 35.818 27 39 58"/><line class="cls-6" x1="25" y1="54" x2="39" y2="54"/><line class="cls-6" x1="26" y1="50" x2="38" y2="50"/><line class="cls-6" x1="27" y1="46" x2="37" y2="46"/><line class="cls-6" x1="27" y1="42" x2="37" y2="42"/><line class="cls-6" x1="27" y1="39" x2="37" y2="39"/><line class="cls-6" x1="28" y1="36" x2="36" y2="36"/><line class="cls-6" x1="28" y1="33" x2="36" y2="33"/><line class="cls-6" x1="28" y1="30" x2="36" y2="30"/><line class="cls-6" x1="22" y1="19" x2="42" y2="19"/><rect class="cls-7" x="30" y="22" width="4" height="5"/><line class="cls-2" x1="45" y1="34" x2="48" y2="34"/><line class="cls-2" x1="47" y1="49" x2="50" y2="49"/><line class="cls-2" x1="51" y1="53" x2="56" y2="53"/><line class="cls-2" x1="18" y1="50" x2="16" y2="50"/><line class="cls-2" x1="13" y1="50" x2="9" y2="50"/><line class="cls-2" x1="20" y1="37" x2="24" y2="37"/></g></svg>